<?xml version="1.0" standalone="no"?>
<!DOCTYPE svg PUBLIC "-//W3C//DTD SVG 20010904//EN"
 "http://www.w3.org/TR/2001/REC-SVG-20010904/DTD/svg10.dtd">
<svg version="1.0" xmlns="http://www.w3.org/2000/svg"
 width="32.000000pt" height="32.000000pt" viewBox="0 0 32.000000 32.000000"
 preserveAspectRatio="xMidYMid meet">
<metadata>
Created by potrace 1.16, written by Peter Selinger 2001-2019
</metadata>
<g transform="translate(0.000000,32.000000) scale(0.006250,-0.006250)"
fill="#111" stroke="none">
<path d="M2320 5059 c-204 -19 -464 -77 -646 -144 -142 -52 -402 -182 -524
-262 -280 -184 -542 -445 -731 -728 -142 -213 -283 -545 -343 -810 -45 -198
-51 -266 -51 -545 0 -232 3 -281 23 -393 126 -700 501 -1273 1095 -1670 130
-88 407 -224 562 -277 945 -324 1979 -90 2670 604 131 132 210 227 308 373
224 331 366 725 408 1132 15 144 6 469 -16 611 -108 688 -506 1303 -1097 1696
-128 85 -384 214 -533 269 -339 124 -762 179 -1125 144z m-450 -1462 c53 -14
122 -35 155 -48 l60 -24 3 -329 2 -328 -68 63 c-119 110 -253 161 -422 161
-103 -1 -183 -18 -258 -56 -124 -63 -219 -177 -268 -321 -24 -69 -28 -96 -28
-195 0 -99 4 -126 27 -193 82 -236 273 -369 532 -369 103 0 192 20 274 62 66
33 177 114 185 135 3 8 10 15 16 15 7 0 9 -105 8 -327 l-3 -328 -110 -32
c-176 -53 -270 -66 -425 -60 -299 12 -560 126 -776 342 -198 197 -288 406
-301 696 -9 201 20 354 98 528 95 210 296 415 514 524 76 38 220 86 305 102
119 23 360 14 480 -18z m1325 -637 c135 -338 248 -624 253 -634 7 -15 69 131
263 617 l254 637 301 0 302 0 -365 -852 c-200 -469 -403 -944 -450 -1055 l-86
-203 -216 0 -216 0 -440 1046 c-242 575 -442 1050 -443 1055 -2 6 111 8 298 7
l301 -3 244 -615z"/>
</g>
</svg>
