<?xml version="1.0" encoding="UTF-8"?>
<svg id="Capa_4" data-name="Capa 4" xmlns="http://www.w3.org/2000/svg" viewBox="0 0 4750.43 2243.21">
  <defs>
    <style>
      .cls-1 {
        fill: none;
        stroke: #4d4dff;
        stroke-miterlimit: 10;
        stroke-width: 6px;
      }

      .cls-2 {
        fill: #f7f7f7;
      }

      .cls-3 {
        fill: #4d4dff;
      }
    </style>
  </defs>
  <g>
    <path class="cls-3" d="m3841.39,2241.49v-32.85h-48.87v32.85h-30.73v-88.61h30.73v30.2h48.87v-30.2h30.6v88.61h-30.6Z"/>
    <path class="cls-3" d="m3952.27,2242.95c-43.97,0-66.09-14.17-66.09-45.82s22.12-45.7,66.09-45.7,66.22,14.04,66.22,45.7-22.25,45.82-66.22,45.82Zm0-65.69c-26.49,0-35.49,2.25-35.49,19.87s9.01,20,35.49,20,35.63-2.52,35.63-20-9.01-19.87-35.63-19.87Z"/>
    <path class="cls-3" d="m4119.58,2241.49l-16.82-21.99h-40v21.99h-30.59v-46.36h80.13c7.29,0,11.26-2.52,11.26-8.34s-3.97-8.08-11.26-8.08h-79.99l20-25.83h56.16c20,0,46.88,5.96,46.88,32.18,0,13.24-7.82,24.9-21.59,28.21,2.38,1.59,8.34,6.89,20.4,20.93l6.36,7.28h-40.93Z"/>
    <path class="cls-3" d="m4171,2241.49v-88.61h30.6v88.61h-30.6Z"/>
    <path class="cls-3" d="m4229.81,2241.49c-7.68,0-14.3-4.5-14.3-12.45,0-4.5,2.51-8.87,6.75-12.05l30.6-23.71c15.36-11.92,19.07-14.3,20.79-15.23-3.18.4-9.01.66-29.8.66h-31.92l19.47-25.83h79.47c7.68,0,14.3,4.5,14.3,12.45,0,4.37-2.65,8.87-6.76,12.05l-30.06,23.57c-15.89,12.45-20.13,14.97-21.46,15.76,1.59-.4,10.99-.66,31.26-.66h31.65l-18.54,25.43h-81.45Z"/>
    <path class="cls-3" d="m4402.54,2242.95c-43.97,0-66.09-14.17-66.09-45.82s22.12-45.7,66.09-45.7,66.22,14.04,66.22,45.7-22.25,45.82-66.22,45.82Zm0-65.69c-26.49,0-35.49,2.25-35.49,19.87s9.01,20,35.49,20,35.63-2.52,35.63-20-9.01-19.87-35.63-19.87Z"/>
    <path class="cls-3" d="m4510.25,2193.94v47.55h-27.81v-71.52c0-13.24,7.81-18.67,16.69-18.67,3.71,0,7.28.93,12.18,5.17l50.2,44.1v-47.68h27.81v71.65c0,13.24-7.94,18.67-16.82,18.67-3.84,0-7.28-1.06-12.18-5.3l-50.07-43.97Z"/>
    <path class="cls-3" d="m4600.47,2241.49l19.73-25.43h66.89c3.97,0,6.22-1.46,6.22-4.63s-2.25-4.64-6.49-4.64h-50.06c-22.91,0-33.38-10.73-33.38-25.69,0-17.88,11.13-28.21,38.81-28.21h78.14l-19.73,25.83h-61.32c-4.11,0-6.23,1.06-6.23,4.24s2.12,4.37,6.23,4.37h50.33c21.46,0,33.24,8.34,33.24,24.5,0,18.28-8.74,29.67-36.16,29.67h-86.22Z"/>
  </g>
  <g>
    <path class="cls-3" d="m4211.56,1648.61v66.68s21.62,4.85,34.17,17.41l31.2,212.23,206.45-154.96-122.69-144.88-104.54-14.44,105.59,8.41,125.55,148.73,54.87-26.61s-79.82-97.91-79.82-122.12,40.74-51.18,40.74-155.76l-.55-44.02-126.67,32.33-25.89-27.33s-3.88,34.64-51.96,63.53c0,0-27.27,20.14-72.89,8.69l-13.56,48.73,48.66,30.84-41.02,51.35-7.64,1.19Z"/>
    <path class="cls-3" d="m4059.31,1871.63l60.59,1.83c42.32,1.28,80.36,25.41,91.66,90.57l27.36-7.8,26.62-11.3-19.66-146.91c-.17-.08-8.42-57.34-8.42-57.34h0c-2.45,14.39-10.32,27.29-22,36.05l-38.97,30.41c-3.07,2.3-33.03,21.78-36.39,23.65l-16.91,9.56c-4.56,2.58-9.21,5.01-13.94,7.28l-49.93,24Z"/>
    <path class="cls-1" d="m4203.5,1726.36s31.75,6.56,13.17,29.52c-20.67,25.54-87.72,69.84-165.19,109.09"/>
    <path class="cls-1" d="m4196.21,1949.67c-29.19,49.33-127.37,67.12-150.09,70.63-2.65.41-5.12-1.26-5.8-3.85-4.84-18.3-27.46-85.81-98-85.81h-31.08s-34,37.86-84.51,37.86c-25.44,0-43.34-18.57-54.83-37-10.55-16.93-16.44-36.34-18.02-56.23h0c0-4.83,3.91-8.74,8.74-8.74h0s18.46-91.31-14.57-191.36l-10.69-60.23,55.37-57.31s-23.31-30.43-23.31-90.5-7.02-151.37,100.32-258.71c107.34-107.34,185.84-121.56,320.58-121.56s220.7,62.78,458.2,160.89l-99.08,60.43"/>
    <path class="cls-1" d="m3769.21,1682.15s-14.01-19.35-14.01-45.38l38.71,31.37,61.4-72.08"/>
    <path class="cls-1" d="m3737.36,1614.94h29.86l38.04,39.88"/>
    <path class="cls-1" d="m3778.1,1606.58l45.39-47.26"/>
    <path class="cls-1" d="m4125.61,1375.91v123.56l-188.29,115.46h-19.98l-93.86-55.62-30.76-1.69"/>
    <path class="cls-1" d="m4629.27,1239.79h44.75c76.76,0,73.38,47.24,73.38,47.24l-138.12,118.75-37.33-6.57-219.47,6.57"/>
    <path class="cls-1" d="m4579.81,1400.59v18.97l-203.95,52.06-25.89-29.79"/>
    <line class="cls-1" x1="4225.12" y1="1516.5" x2="4211.56" y2="1565.23"/>
    <path class="cls-1" d="m3939.19,1644.43c44.39-19.83,80.5-27.5,100.72-30.46,16.62-2.43,32.6-7.88,47.14-16.29,49-28.35,105.89-78.09,105.89-78.09,0,0,3.24,51.51-26.36,79.76-29.6,28.26-86.78,53.15-86.78,53.15l-120.62,6.05-47.57,33.64"/>
    <path class="cls-1" d="m3900.54,1831.74v-103.87s-15.63-13.79-15.63-32.17,15.63-32.17,15.63-32.17"/>
    <path class="cls-1" d="m4190.31,1551.76l69.92,44.3-41.02,51.35-79.59,12.43-32.16,66.52"/>
    <path class="cls-1" d="m4250.18,1358.48c31.24,0,56.57,25.33,56.57,56.57s-25.33,56.57-56.57,56.57-56.57-25.33-56.57-56.57,25.33-56.57,56.57-56.57Zm-102.88,58.23c0,56.82,46.06,102.88,102.88,102.88s102.88-46.06,102.88-102.88-46.06-102.88-102.88-102.88-102.88,46.06-102.88,102.88Zm22.52,64.21s23.54-9.86,34.82-32.34m-26.17,43.17s23.54-9.86,34.82-32.34m-22.98,40.08s23.54-9.86,34.82-32.34m118.62-6.8s-16.47-19.5-41.3-23.51m246.98-128.63s-315.9-129.72-423.81-21.82c-107.91,107.91-27.76,230.13-27.76,230.13"/>
    <path class="cls-3" d="m4069.22,1513.74s-81.42-124.57,38.22-244.21c110-110,441.98,21.65,441.98,21.65l58.18-35.66s-263.86-148.77-437.79-148.77c-37.51,0-103.83,1.3-148.86,20.72-78.56,33.88-139.03,89.21-189.3,158.44-25.22,34.73-40.68,88.29-45.01,126.19-1.91,16.77-2.53,33.65-2.14,50.52.28,12.2,1.68,24.34,3.89,36.34l9.67,40.57c.11.47.54.81,1.03.8l24.38-.54,94.74,57.2h18.33l132.67-83.24Z"/>
    <path class="cls-2" d="m4482.65,1456.33c1.25,16.72.84,33.55-1.23,50.19-2.07,16.72-5.85,33.25-11.19,49.23-3,8.97-6.51,17.77-10.51,26.35-.81,1.74,1.77,3.26,2.59,1.51,7.2-15.45,12.87-31.6,16.87-48.18,3.98-16.5,6.33-33.4,6.99-50.35.37-9.58.2-19.18-.52-28.75-.14-1.91-3.14-1.93-3,0h0Z"/>
    <path class="cls-1" d="m3911.23,1930.64l110.51-46.75s100.13,1.13,118.75,6.26c20.79,5.73,49.81,17.03,59.77,78.35"/>
    <path class="cls-1" d="m4190.52,1931.96s-15.22,46.28-155.85,67.64m-8.04-14.76c140.63-21.37,155.85-67.64,155.85-67.64m-163.46,53.58c140.63-21.37,152.41-63.36,152.41-63.36m-163.8,50.46c140.63-21.37,151.26-60.82,151.26-60.82m-165.04,48.79c140.63-21.37,143.13-57.55,143.13-57.55m-157.57,49.63c108.99-18.28,139.76-50.55,139.76-50.55m-160.79,43.94c108.99-18.28,124.88-44.66,124.88-44.66m-147.59,43.38c117.03-28.61,123.64-45.4,123.64-45.4m-144.9,44.64c120.26-32.23,120.45-45.4,120.45-45.4"/>
    <path class="cls-3" d="m4006.58,1656.17s-34.73,108.83-53.94,141.53c0,0-1.22,17.17,19.21,17.17l100.56-79.35,35.04-75.17-.21-21.25-27.44,13.39-73.21,3.67Z"/>
  </g>
</svg>