<?xml version="1.0" standalone="no"?>
<!DOCTYPE svg PUBLIC "-//W3C//DTD SVG 20010904//EN"
 "http://www.w3.org/TR/2001/REC-SVG-20010904/DTD/svg10.dtd">
<svg version="1.0" xmlns="http://www.w3.org/2000/svg"
 width="4238.000000pt" height="3926.000000pt" viewBox="0 0 4238.000000 3926.000000"
 preserveAspectRatio="xMidYMid meet">
<metadata>
Created by potrace 1.16, written by Peter Selinger 2001-2019
</metadata>
<g transform="translate(0.000000,3926.000000) scale(0.100000,-0.100000)"
fill="#000000" stroke="none">
<path d="M17855 39233 c-2877 -54 -4799 -366 -6570 -1068 -1249 -495 -2438
-1200 -3650 -2163 -920 -732 -1993 -1739 -2772 -2605 -1195 -1327 -2081 -2703
-2653 -4122 -455 -1128 -721 -2305 -815 -3605 -36 -508 -40 -670 -40 -1740 0
-1155 4 -1268 61 -1740 83 -698 245 -1345 481 -1920 72 -177 235 -507 317
-645 37 -60 65 -112 64 -116 -2 -4 -496 -517 -1098 -1140 -602 -623 -1112
-1152 -1134 -1176 l-39 -44 228 -1282 227 -1282 68 -220 c436 -1398 674 -2803
740 -4365 13 -303 13 -1098 0 -1400 -24 -562 -70 -1095 -136 -1560 -39 -278
-44 -300 -63 -300 -9 0 -49 -16 -90 -35 -99 -48 -180 -129 -228 -230 -57 -121
-57 -236 -2 -620 73 -503 226 -1016 439 -1477 253 -547 659 -1114 1040 -1453
411 -366 823 -572 1305 -652 88 -14 163 -18 380 -17 351 1 601 29 939 105 882
199 1768 683 2484 1356 l122 115 753 -5 c611 -3 779 -7 897 -21 742 -84 1339
-329 1905 -780 121 -97 443 -416 548 -543 464 -563 831 -1270 1046 -2011 54
-188 78 -239 142 -296 97 -88 186 -101 424 -61 1081 180 2194 470 3093 807
1346 503 2313 1120 2876 1836 35 45 67 79 70 74 2 -4 23 -105 46 -223 22 -117
43 -224 46 -237 3 -16 10 -22 22 -18 9 2 65 12 125 22 64 10 107 22 107 28 0
28 -55 316 -91 476 -260 1167 -734 1966 -1447 2443 -328 219 -851 422 -1252
487 -598 95 -1935 166 -4005 210 -253 6 -538 10 -633 10 l-172 0 -2305 -975
c-1268 -536 -2309 -975 -2313 -975 -5 0 -67 -58 -138 -128 -369 -362 -857
-708 -1345 -953 -480 -240 -967 -391 -1479 -459 -199 -27 -574 -37 -720 -21
-701 80 -1322 518 -1859 1311 -456 674 -738 1462 -825 2308 -17 160 -11 203
38 267 47 61 107 88 207 93 l87 4 5 32 c224 1240 286 2759 171 4211 -102 1287
-332 2497 -704 3695 l-70 225 -201 1135 c-110 624 -203 1145 -206 1158 l-5 22
518 0 519 0 630 -661 c347 -364 676 -709 732 -768 l102 -108 -135 -159 c-75
-87 -146 -170 -159 -183 l-23 -23 -848 687 c-467 378 -855 693 -863 699 -20
15 -9 -490 14 -664 44 -336 134 -665 265 -975 106 -251 306 -605 333 -589 6 5
53 37 102 73 50 36 92 66 94 68 2 1 -21 39 -50 85 -163 254 -329 648 -414 988
-41 160 -92 460 -79 460 2 0 336 -268 741 -597 537 -436 739 -594 749 -587 18
12 2634 3084 2633 3092 0 12 -179 157 -191 157 -7 0 -457 -522 -1001 -1160
-543 -638 -991 -1161 -995 -1163 -5 -1 -349 355 -766 793 l-759 795 -494 2
-495 3 1026 1062 c934 967 1029 1062 1054 1058 15 -2 223 -14 462 -26 239 -12
437 -23 439 -25 1 -1 -378 -399 -844 -884 -465 -484 -845 -884 -843 -889 4
-11 174 -171 181 -171 4 0 390 399 858 887 468 489 878 914 909 947 l58 58
1926 -1141 1927 -1141 457 2 457 3 3962 2430 3963 2430 0 2618 0 2617 -125 0
-125 0 -2 -2542 -3 -2542 -492 -302 -493 -302 -19 31 c-159 265 -404 791 -551
1187 -647 1733 -708 3466 -179 5044 277 825 721 1616 1316 2346 316 387 699
786 968 1006 671 549 1548 952 2571 1183 832 187 1624 265 2674 265 516 0 740
-8 1220 -40 2682 -179 6073 -958 9520 -2188 273 -98 916 -339 1079 -406 69
-27 128 -47 132 -43 4 5 16 29 26 56 l19 47 29 -50 c16 -28 33 -49 37 -48 19
7 4338 2644 4338 2649 0 3 -93 45 -207 92 l-208 86 740 0 c873 1 1078 -10
1460 -75 1048 -181 1708 -679 1891 -1429 13 -55 27 -138 30 -186 l7 -85 -2814
-2419 c-1548 -1330 -2823 -2426 -2834 -2435 -19 -16 -60 -10 -765 116 l-745
132 -4485 -134 c-2467 -74 -4503 -134 -4526 -134 l-40 0 -28 162 c-267 1561
-1355 2860 -2853 3403 -819 298 -1762 340 -2613 119 -1114 -290 -2070 -1004
-2666 -1990 -679 -1125 -822 -2497 -388 -3744 452 -1302 1514 -2333 2832
-2750 108 -34 132 -45 127 -59 -2 -9 -110 -396 -240 -860 -129 -464 -236 -846
-239 -848 -2 -2 -151 89 -331 203 l-327 208 5 45 c4 25 15 106 26 180 46 305
56 457 55 861 0 212 -5 402 -10 422 l-9 37 -185 -161 c-599 -520 -1422 -1182
-2145 -1724 -1090 -818 -2144 -1502 -2705 -1755 -482 -217 -928 -346 -1499
-435 -1209 -189 -2416 -533 -3666 -1046 -247 -101 -516 -217 -528 -228 -5 -4
15 -59 44 -123 l51 -116 32 13 c1052 457 1899 752 2836 986 458 114 804 185
1250 255 438 68 680 125 1040 245 504 167 882 356 1543 772 997 627 2265 1569
3486 2591 l214 179 -6 -163 c-11 -276 -51 -611 -108 -889 -136 -663 -374
-1211 -708 -1630 -423 -531 -1397 -1221 -2691 -1905 -227 -121 -821 -413
-1000 -493 l-115 -51 -2517 -126 -2516 -125 -999 -706 c-549 -388 -1002 -710
-1007 -714 -9 -9 128 -210 144 -210 6 0 448 310 983 688 l973 688 933 47 c514
26 936 45 939 43 10 -11 -422 -1300 -720 -2146 -611 -1736 -1126 -3003 -1446
-3555 -33 -58 -34 -63 -29 -135 20 -253 150 -453 358 -553 52 -25 125 -53 162
-62 80 -19 277 -37 292 -26 160 120 4180 3300 4190 3315 7 11 338 717 734
1568 l721 1547 -2 375 -3 375 145 77 c1184 631 2158 1316 2599 1829 344 400
602 917 764 1530 19 72 39 129 43 128 7 -1 2612 -1648 2621 -1657 1 -1 -353
-447 -788 -992 -455 -570 -799 -992 -812 -997 -12 -4 -762 -122 -1667 -263
-905 -141 -1648 -259 -1651 -263 -11 -11 -1372 -2832 -1368 -2835 18 -12 230
-109 233 -105 2 2 297 612 656 1354 359 743 654 1352 656 1354 4 5 2851 450
2882 451 l22 0 0 -1323 0 -1323 73 -18 c202 -52 525 -175 729 -277 210 -105
421 -245 567 -377 l54 -49 648 -4404 c357 -2422 648 -4412 649 -4421 0 -10 5
-18 10 -18 8 0 8566 6416 8603 6450 4 4 -1142 1366 -2548 3026 -2191 2586
-2562 3020 -2589 3025 -17 4 -924 130 -2016 280 -1092 151 -1976 275 -1965
277 18 2 3844 -299 3988 -314 l57 -6 2616 -3099 2615 -3098 52 23 c64 29 2240
1086 2244 1090 2 1 -49 67 -113 147 -787 976 -1660 2149 -2209 2969 -375 559
-584 909 -770 1285 -181 365 -230 518 -229 710 0 252 79 461 412 1094 187 358
355 697 445 901 464 1056 719 2172 807 3535 26 404 30 751 18 1687 -6 522 -9
950 -7 953 3 2 738 191 1634 420 897 229 1647 420 1667 426 l38 10 2 367 3
368 566 -99 566 -100 1664 1430 c915 787 2229 1916 2919 2510 l1255 1079 3
113 c4 148 -26 323 -83 499 -276 840 -1101 1373 -2341 1511 -324 36 -499 41
-1555 41 l-1032 0 -371 156 c-1577 665 -3099 1335 -5706 2514 -2285 1033
-3063 1377 -4010 1772 -3083 1286 -5180 1819 -7555 1918 -205 8 -1450 11
-1850 3z m1536 -253 c2487 -61 4609 -585 7840 -1938 915 -384 1667 -716 3799
-1680 3080 -1392 4780 -2137 6540 -2867 129 -54 238 -100 242 -104 6 -5 -3313
-2039 -3768 -2309 l-73 -44 -53 20 c-29 11 -147 57 -263 102 -1293 501 -3011
1056 -4501 1455 -3342 894 -6211 1248 -8479 1044 -1878 -168 -3314 -716 -4323
-1651 -134 -124 -373 -373 -535 -556 -1197 -1358 -1849 -2868 -1957 -4527 -13
-205 -13 -734 0 -940 63 -979 305 -1964 711 -2902 81 -186 278 -586 362 -733
l54 -95 -51 -31 c-28 -18 -1501 -921 -3274 -2008 l-3223 -1976 -378 0 -378 0
-1954 1158 -1954 1158 -627 34 -626 34 -70 115 c-380 634 -654 1489 -771 2411
-60 468 -71 739 -71 1770 0 1157 17 1583 91 2250 314 2858 1619 5354 4084
7815 2493 2489 4674 3832 7250 4465 1400 344 2939 502 5155 529 322 4 635 8
695 9 61 1 288 -3 506 -8z m2374 -9460 c212 -14 373 -36 574 -76 1659 -334
2958 -1656 3265 -3324 50 -274 61 -401 61 -750 0 -252 -4 -357 -18 -470 -43
-347 -124 -681 -234 -975 -25 -66 -47 -122 -49 -124 -1 -1 -47 36 -101 84
-382 339 -811 580 -1266 711 -66 19 -122 36 -123 37 -2 2 8 41 22 87 74 252
99 435 99 725 -1 246 -13 363 -61 565 -218 926 -945 1646 -1874 1855 -253 58
-611 74 -865 40 -1064 -141 -1918 -940 -2119 -1983 -121 -627 -5 -1261 329
-1801 l58 -94 -18 -31 c-41 -73 -169 -257 -232 -336 -212 -265 -567 -558 -902
-746 l-104 -58 -24 29 c-52 64 -235 346 -304 470 -245 440 -406 917 -479 1419
-55 381 -55 812 0 1192 221 1518 1262 2792 2713 3318 515 187 1111 272 1652
236z m63 -1875 c896 -132 1625 -788 1847 -1664 42 -165 56 -279 62 -481 4
-151 2 -225 -11 -328 -105 -822 -646 -1515 -1413 -1812 -256 -99 -507 -144
-798 -144 -227 0 -350 15 -560 69 -609 157 -1134 577 -1420 1137 -106 206
-176 416 -221 663 -29 157 -27 566 4 730 88 466 294 865 612 1185 189 191 363
316 602 435 259 128 524 201 838 229 85 8 350 -4 458 -19z m13192 -1694 l95
-17 3 -292 c1 -161 0 -292 -2 -292 -2 0 -1873 -477 -4157 -1060 -2285 -583
-4157 -1059 -4161 -1058 -3 2 -225 255 -493 563 -450 517 -486 562 -482 590 3
17 17 91 31 165 58 312 81 600 73 923 l-5 227 27 1 c14 0 2002 60 4416 133
2415 74 4428 134 4475 134 47 0 128 -7 180 -17z m-11090 -1606 c428 -123 879
-387 1227 -719 l92 -88 -46 -86 c-397 -746 -975 -1335 -1699 -1731 -856 -469
-1848 -619 -2810 -425 -377 75 -720 194 -1062 368 -166 85 -386 217 -375 225
4 4 63 39 129 79 460 271 862 662 1111 1079 31 51 58 93 60 93 3 0 49 -16 102
-36 53 -20 164 -54 246 -74 589 -149 1221 -76 1753 201 451 235 830 611 1053
1043 43 85 58 106 76 106 12 0 76 -16 143 -35z m-4102 -746 c6 -14 -110 -201
-188 -304 -144 -191 -315 -366 -520 -531 -110 -88 -340 -242 -454 -305 l-80
-43 -89 95 c-100 107 -126 141 -111 146 27 9 289 171 368 227 343 246 631 537
819 827 l62 95 95 -99 c52 -55 97 -104 98 -108z m11476 168 c26 -19 33 -75 47
-388 13 -296 8 -864 -11 -1124 -77 -1083 -288 -2069 -652 -3050 -120 -323
-311 -769 -345 -807 -29 -32 -76 -21 -99 23 -14 28 -11 36 80 241 493 1113
787 2299 876 3527 30 421 33 788 8 1320 -10 232 -10 245 8 258 23 17 65 17 88
0z m-11133 -419 c46 -30 98 -63 116 -74 l32 -20 -65 -104 c-127 -204 -293
-401 -476 -568 -197 -179 -469 -370 -684 -479 l-91 -47 -101 83 c-56 45 -102
86 -102 90 0 5 7 11 15 15 26 9 225 137 315 200 351 249 646 558 855 894 55
90 58 92 79 78 12 -8 60 -38 107 -68z m-7986 -17592 c-56 -38 -301 -165 -455
-235 -432 -196 -880 -366 -1592 -602 -279 -93 -513 -169 -520 -169 -7 0 527
229 1187 509 l1200 509 100 1 c87 1 97 -1 80 -13z m1031 -8 c9 -9 -213 -135
-391 -223 -710 -349 -1809 -723 -3300 -1125 -366 -98 -1056 -272 -1061 -267
-2 2 65 23 149 46 1738 490 3150 1007 3722 1364 100 62 250 179 264 205 8 16
35 16 310 11 166 -4 304 -9 307 -11z m964 -25 l134 -6 -39 -35 c-239 -208
-734 -475 -1290 -695 -876 -348 -2151 -678 -3485 -903 -91 -15 -168 -32 -171
-37 -4 -5 -25 -5 -50 0 -42 8 -37 10 162 62 1119 294 2188 632 2909 921 592
237 1066 494 1235 670 l40 42 210 -6 c116 -4 271 -9 345 -13z m720 -28 c303
-11 766 -37 790 -44 22 -7 10 -17 -120 -103 -385 -254 -902 -515 -1459 -738
-998 -399 -2195 -724 -3586 -975 -292 -53 -252 -55 -455 18 -98 35 -120 46
-100 51 14 3 162 33 330 66 1730 345 3092 808 3875 1318 188 122 358 262 441
362 49 59 49 60 94 55 25 -2 110 -7 190 -10z m1533 -101 c78 -8 148 -17 155
-20 40 -13 -223 -299 -398 -434 -545 -419 -1384 -785 -2535 -1105 -715 -199
-1664 -399 -2588 -546 l-197 -31 -105 63 c-58 35 -105 66 -105 69 0 3 80 20
178 39 2220 417 4106 1105 5102 1862 64 48 124 97 135 109 19 21 25 22 118 16
54 -3 162 -13 240 -22z m722 -151 c126 -41 333 -120 372 -141 23 -14 -111
-185 -254 -322 -868 -839 -2878 -1553 -5588 -1985 l-209 -33 -94 89 c-51 48
-120 110 -152 136 -33 26 -56 51 -52 54 4 3 43 12 87 19 175 26 715 124 975
176 1761 352 3065 800 3875 1332 195 127 317 224 451 357 126 124 220 243 274
344 l32 59 71 -20 c40 -11 135 -40 212 -65z m716 -334 c52 -34 125 -86 162
-116 l68 -55 -36 -66 c-105 -191 -333 -428 -621 -645 -530 -399 -1371 -794
-2334 -1095 -703 -221 -1512 -417 -2358 -571 -206 -38 -727 -126 -783 -133
-23 -2 -37 10 -97 87 -39 50 -94 118 -123 153 -28 34 -50 64 -48 66 2 1 81 15
174 30 94 16 280 48 415 72 2311 420 3984 1013 4929 1748 199 155 428 392 514
533 18 29 35 53 38 53 4 0 49 -28 100 -61z m487 -421 c28 -32 79 -92 112 -133
68 -87 69 -72 -12 -193 -60 -89 -201 -253 -294 -343 -917 -882 -2696 -1596
-5094 -2043 -264 -49 -715 -126 -741 -126 -9 0 -47 52 -95 132 -43 73 -89 148
-102 169 l-22 36 77 13 c207 32 672 116 926 166 2091 410 3641 992 4572 1716
220 171 497 466 584 620 14 26 29 47 32 45 3 -1 29 -28 57 -59z m432 -642 l85
-165 -25 -46 c-70 -131 -269 -361 -448 -520 -596 -528 -1474 -983 -2637 -1365
-819 -269 -1772 -495 -2843 -674 -150 -25 -281 -46 -291 -46 -12 0 -25 18 -41
58 -13 31 -50 113 -82 181 -32 68 -58 127 -58 131 0 4 23 10 51 14 110 15 635
109 898 162 1793 358 3198 853 4201 1481 408 256 810 602 1010 870 47 63 79
97 85 92 6 -4 49 -82 95 -173z m269 -648 c32 -101 61 -190 63 -199 4 -22 -88
-160 -207 -309 -720 -899 -2208 -1668 -4245 -2194 -537 -139 -1550 -346 -1691
-346 -55 0 -72 27 -123 203 -26 87 -67 216 -92 288 -25 72 -44 133 -41 135 2
2 123 24 270 49 2721 459 4682 1217 5695 2199 81 78 231 247 277 313 17 24 31
43 32 43 1 0 29 -82 62 -182z"/>
<path d="M17120 38279 c-1936 -48 -3453 -260 -4605 -644 -286 -95 -423 -148
-722 -281 -1614 -716 -3114 -1687 -4477 -2899 -593 -527 -1276 -1217 -1821
-1840 -487 -555 -1143 -1385 -1500 -1895 -334 -479 -670 -1122 -945 -1809
-371 -930 -665 -2016 -809 -2996 -140 -943 -181 -2193 -100 -3060 51 -551 88
-755 315 -1710 217 -913 219 -921 236 -927 7 -3 243 1 523 7 l510 12 1978
-1194 1979 -1193 382 0 381 0 2746 1723 c1510 947 2756 1729 2769 1737 l23 16
-27 43 c-91 144 -238 427 -350 675 -415 916 -660 1878 -738 2906 -18 240 -15
858 5 1100 107 1251 472 2368 1136 3475 524 874 1365 1863 2016 2371 132 102
439 308 585 392 1070 611 2413 944 4130 1022 452 21 1311 11 1840 -20 2348
-140 5146 -687 8170 -1598 1046 -315 2263 -725 3051 -1028 92 -35 173 -64 181
-64 17 0 2420 1472 2425 1485 5 18 -935 521 -1767 944 -4149 2111 -8207 3714
-11522 4550 -1650 416 -3089 644 -4423 701 -268 11 -1108 11 -1575 -1z"/>
<path d="M6774 15098 c-307 -318 -522 -718 -586 -1092 -27 -159 -22 -439 11
-584 77 -348 278 -715 546 -1000 l75 -80 0 -2136 0 -2136 125 0 125 0 0 2198
0 2198 -66 64 c-207 202 -400 496 -492 746 -163 444 -98 872 202 1329 76 116
192 260 270 335 25 24 46 48 46 53 0 13 -153 185 -166 186 -6 1 -46 -36 -90
-81z"/>
<path d="M19586 12573 c-12 -41 -48 -224 -45 -227 2 -2 44 -16 92 -30 277 -84
494 -232 565 -383 59 -129 34 -288 -75 -461 -170 -271 -544 -639 -1102 -1085
-1296 -1036 -3387 -2321 -5717 -3514 l-132 -67 56 -113 c31 -62 61 -113 66
-113 5 0 124 59 265 131 3120 1601 5825 3406 6660 4444 120 149 189 270 237
415 24 74 28 101 28 210 1 139 -9 183 -71 302 -100 192 -342 364 -661 468
-137 45 -158 48 -166 23z"/>
<path d="M20970 11823 c-74 -369 -216 -684 -444 -987 -174 -232 -239 -287
-1206 -1042 -487 -379 -914 -710 -950 -735 -90 -64 -641 -424 -1045 -684 -338
-217 -1055 -631 -1420 -821 -99 -51 -664 -325 -1255 -609 -591 -284 -1079
-520 -1083 -525 -12 -11 106 -15 1463 -55 641 -19 1221 -40 1290 -45 796 -67
1460 -319 2033 -773 133 -105 430 -403 541 -542 96 -121 286 -402 361 -534
273 -482 489 -1098 620 -1771 14 -74 27 -136 29 -138 2 -2 260 69 572 159
l569 161 555 236 c305 129 556 236 558 237 3 3 -813 6110 -828 6195 -13 74
-67 443 -216 1464 -68 473 -126 862 -128 864 -2 2 -10 -23 -16 -55z"/>
</g>
</svg>
