<?xml version="1.0" standalone="no"?>
<!DOCTYPE svg PUBLIC "-//W3C//DTD SVG 20010904//EN"
 "http://www.w3.org/TR/2001/REC-SVG-20010904/DTD/svg10.dtd">
<svg version="1.0" xmlns="http://www.w3.org/2000/svg"
 width="32.000000pt" height="32.000000pt" viewBox="0 0 32.000000 32.000000"
 preserveAspectRatio="xMidYMid meet">
<metadata>
Created by potrace 1.16, written by Peter Selinger 2001-2019
</metadata>
<g transform="translate(0.000000,32.000000) scale(0.006250,-0.006250)"
fill="#111" stroke="none">
<path d="M2235 5105 c-462 -60 -885 -237 -1255 -523 -117 -91 -316 -287 -413
-407 -276 -342 -459 -746 -537 -1186 -28 -156 -39 -531 -21 -702 43 -399 182
-790 398 -1122 98 -150 184 -257 318 -394 419 -430 948 -690 1550 -760 134
-16 460 -13 605 4 748 93 1416 512 1833 1150 210 321 344 690 392 1075 20 162
20 477 0 640 -92 742 -510 1412 -1140 1826 -329 216 -695 350 -1085 399 -152
18 -501 18 -645 0z m1600 -1564 c43 -19 100 -78 116 -118 12 -33 12 -1693 0
-1726 -16 -40 -73 -99 -116 -118 -38 -18 -102 -19 -1275 -19 -1173 0 -1237 1
-1275 19 -43 19 -100 78 -116 118 -13 36 -12 1694 2 1730 15 40 67 92 114 114
38 18 93 19 1275 19 1173 0 1237 -1 1275 -19z"/>
<path d="M1506 3005 c-14 -15 -16 -65 -16 -467 0 -309 4 -463 11 -489 15 -50
62 -105 110 -129 37 -19 62 -20 917 -20 l879 0 44 23 c24 13 58 43 74 66 l30
43 3 474 3 474 -25 0 c-14 0 -99 -38 -188 -84 -201 -104 -401 -190 -598 -257
-229 -77 -221 -78 -452 21 -106 45 -311 142 -454 215 -144 73 -275 136 -291
139 -22 5 -35 2 -47 -9z"/>
</g>
</svg>
